<?xml version="1.0" encoding="UTF-8" standalone="no" ?>
<!DOCTYPE svg PUBLIC "-//W3C//DTD SVG 1.1//EN" "http://www.w3.org/Graphics/SVG/1.1/DTD/svg11.dtd">
<svg xmlns="http://www.w3.org/2000/svg" xmlns:xlink="http://www.w3.org/1999/xlink" version="1.1" width="1080" height="1080" viewBox="0 0 1080 1080" xml:space="preserve">
<desc>Created with Fabric.js 5.2.4</desc>
<defs>
</defs>
<g transform="matrix(1 0 0 1 540 540)" id="6960b3f2-5238-4fb8-b4bf-3dfb269a8be8"  >
<rect style="stroke: none; stroke-width: 1; stroke-dasharray: none; stroke-linecap: butt; stroke-dashoffset: 0; stroke-linejoin: miter; stroke-miterlimit: 4; fill: rgb(255,255,255); fill-rule: nonzero; opacity: 1; visibility: hidden;" vector-effect="non-scaling-stroke"  x="-540" y="-540" rx="0" ry="0" width="1080" height="1080" />
</g>
<g transform="matrix(1 0 0 1 540 540)" id="f0a0b66d-b817-46a5-ba18-2f00d9055318"  >
</g>
<g transform="matrix(1 0 0 1 540 540)" id="e79c4100-3dae-45fb-85cf-d909c6c49b7e"  >
<path style="stroke: rgb(116,250,252); stroke-width: 0; stroke-dasharray: none; stroke-linecap: butt; stroke-dashoffset: 0; stroke-linejoin: miter; stroke-miterlimit: 4; fill: rgb(116,250,252); fill-rule: nonzero; opacity: 1;" vector-effect="non-scaling-stroke"  transform=" translate(-224, -256)" d="M 256 80 C 256 62.3 241.7 48 224 48 C 206.3 48 192 62.3 192 80 L 192 224 L 48 224 C 30.3 224 16 238.3 16 256 C 16 273.7 30.3 288 48 288 L 192 288 L 192 432 C 192 449.7 206.3 464 224 464 C 241.7 464 256 449.7 256 432 L 256 288 L 400 288 C 417.7 288 432 273.7 432 256 C 432 238.3 417.7 224 400 224 L 256 224 L 256 80 z" stroke-linecap="round" />
</g>
<g transform="matrix(NaN NaN NaN NaN 0 0)"  >
<g style=""   >
</g>
</g>
<g transform="matrix(NaN NaN NaN NaN 0 0)"  >
<g style=""   >
</g>
</g>
<g transform="matrix(NaN NaN NaN NaN 0 0)"  >
<g style=""   >
</g>
</g>
</svg>